<svg id="Layer_1" data-name="Layer 1" xmlns="http://www.w3.org/2000/svg" xmlns:xlink="http://www.w3.org/1999/xlink" viewBox="0 0 80.56 118.92"><defs><style>.cls-1,.cls-13{fill:none;}.cls-2{fill:#edc3ae;}.cls-3{fill:#42210b;}.cls-4{fill:#fb9a80;}.cls-5{fill:#e24141;}.cls-6{fill:#f99;}.cls-7{fill:#c04949;}.cls-8{fill:#ffbdaa;}.cls-9{clip-path:url(#clip-path);}.cls-10{fill:#ecfaff;}.cls-11{fill:#b3d8e3;}.cls-12{fill:#c42a2a;}.cls-13{stroke:#b3d8e3;stroke-miterlimit:10;}</style><clipPath id="clip-path" transform="translate(-23.91 -15.98)"><path class="cls-1" d="M74.68,109.61a18,18,0,0,1-10.18,2.91,18.06,18.06,0,0,1-10.16-2.89c-1.45.7-12.34,26.29-6.4,25.22l36.05-.1C86.88,134.75,76.13,110.32,74.68,109.61Z"/></clipPath></defs><title>colored-male</title><path class="cls-2" d="M64.39,28a36.24,36.24,0,0,1,23.46,7.78c5.64,4.79,8.73,12.68,10.43,19.44v5.35a110.46,110.46,0,0,0-2,13.52c8.74-.56,11.27,7.32,3.66,12.11-3.09,2-6.37.07-7,1-4.12,5.93-6.47,8-9.42,9.66-6.47,3.72-14.87,4-14.87,4-.44.93,0,7.16,0,7.16a41.84,41.84,0,0,1,4.8,1.37c-1.23,1.82-.76,3.75-8.22,5H63.77a10.83,10.83,0,0,1-8.41-5A41,41,0,0,1,60.15,108s.42-6.23,0-7.16a33.71,33.71,0,0,1-13.94-4C43.24,95.16,40,93.1,35.84,87.17c-.64-.93-3.93,1-7-1-7.6-4.79-5.07-12.67,3.67-12.11a112.39,112.39,0,0,0-2-13.52V55.19c1.69-6.76,4.78-14.65,10.42-19.44a35.64,35.64,0,0,1,20-7.68Z" transform="translate(-23.91 -15.98)"/><path class="cls-3" d="M53.83,54.32c1-.37,2.73-1,2.48-1.71s-1.35-.26-1.8-.18a4.46,4.46,0,0,0-2.64,1c-.36.36-.91,1.06-.28,1.37a1.84,1.84,0,0,0,1.62-.21C53.31,54.5,53.54,54.42,53.83,54.32Z" transform="translate(-23.91 -15.98)"/><path d="M55.77,71.34c1.58-.32,1.34-2.59.92-3.68a2.49,2.49,0,0,0-1.27-1.53,1.42,1.42,0,0,0-1.7.93C53.32,68.41,53.69,71.76,55.77,71.34Z" transform="translate(-23.91 -15.98)"/><path class="cls-4" d="M63,80l.21.07a2.61,2.61,0,0,0,.26.06h.33a4.16,4.16,0,0,0,2-.68,5.47,5.47,0,0,0,2-2c.22-.45.2-.8-.09-1s-.94-.71-1.39-1.12a10.29,10.29,0,0,1-1.27-1.47c-.18-.26-.36-.51-.52-.78s-.25-.56-.38-.83a8.17,8.17,0,0,1-.5-1.65,12.15,12.15,0,0,1-.1-1.54,10.2,10.2,0,0,1,.18-1.27,5,5,0,0,1,.29-.94c.2-.5.32-.78.32-.78s0,.31-.13.83a4.76,4.76,0,0,0-.11.94c0,.36,0,.77,0,1.21s.13.91.26,1.38A8.38,8.38,0,0,0,65,71.84l.39.73.49.68A9.69,9.69,0,0,0,67,74.52c.44.41.92.73,1.41,1.18a1.23,1.23,0,0,1,.37.49,1.14,1.14,0,0,1,.15.62,2,2,0,0,1-.3,1,4.47,4.47,0,0,1-1.22,1.32,5.76,5.76,0,0,1-1.34.77,4.25,4.25,0,0,1-2.26.37,1.73,1.73,0,0,1-.59-.22Z" transform="translate(-23.91 -15.98)"/><path class="cls-3" d="M74.08,54.32c-1-.37-2.73-1-2.48-1.71s1.35-.26,1.8-.18a4.46,4.46,0,0,1,2.64,1c.36.36.91,1.06.29,1.37a1.83,1.83,0,0,1-1.62-.21Z" transform="translate(-23.91 -15.98)"/><path d="M72.14,71.34c-1.58-.32-1.34-2.59-.91-3.68a2.48,2.48,0,0,1,1.26-1.53,1.42,1.42,0,0,1,1.7.93C74.59,68.41,74.22,71.76,72.14,71.34Z" transform="translate(-23.91 -15.98)"/><path class="cls-5" d="M85.28,126.77c-.21-3.76-.88-7.66-2.34-9.76-2.39-3.35-4.29-5.77-9.51-7.65-2.07,3.5-7.18,4.77-9,4.77-3.49,0-7.87-2.61-9-4.77-5.23,1.88-7.13,4.3-9.52,7.65-1.46,2.1-2.13,6-2.34,9.76a49.74,49.74,0,0,0,.25,7.84c.07.55,4,.15,8.61.16,2.85,0,9.9,0,12.38,0l3.77,0c2.17,0,3.06,0,7.91,0,4.59,0,8.79.19,8.86-.36A50.84,50.84,0,0,0,85.28,126.77Z" transform="translate(-23.91 -15.98)"/><path class="cls-6" d="M55.79,88.15A18.5,18.5,0,0,0,64,89.92a19.06,19.06,0,0,0,7.39-1.32C67.64,83.35,59.93,84.46,55.79,88.15Z" transform="translate(-23.91 -15.98)"/><path class="cls-7" d="M77,84A100.33,100.33,0,0,1,50.9,84a11.72,11.72,0,0,0,4.89,4.19c4.72-3.13,11-3.34,15.57.45A11.1,11.1,0,0,0,77,84Z" transform="translate(-23.91 -15.98)"/><path class="cls-8" d="M33.18,81.67c-.32-2.4-2.37-5.4-4.44-4.16-.59.35-.67,1.3-.7,1.9-.11,1.85.72,4.2,2.68,4.75S33.41,83.35,33.18,81.67Z" transform="translate(-23.91 -15.98)"/><path class="cls-8" d="M95.56,81.67c.32-2.4,2.37-5.4,4.44-4.16.59.35.67,1.3.7,1.9.11,1.85-.72,4.2-2.68,4.75S95.33,83.35,95.56,81.67Z" transform="translate(-23.91 -15.98)"/><path class="cls-3" d="M77.28,37.67C78,43.74,69.37,48.4,65.66,51.9c1.23-3.27,2.47-6.3,3.46-9.56-4,6.29-11.58,8.13-19.49,10.23,3-2.69,4-7.11,5.86-10.54a48.12,48.12,0,0,1-8.29,9.56c-2.92,2.8-6.14,3.92-9.47,5.89a15.07,15.07,0,0,0-.22-4.89,23.65,23.65,0,0,1-.88,6.63,84.74,84.74,0,0,0-1.88,9,48.06,48.06,0,0,1-1.52,9c-2.88-6-6.12-12.38-6.63-19.12-.06-.85-.53-6.93.28-7.24a4.54,4.54,0,0,0-2,2c0-1.95-.07-3.95.95-5.64-.61.6-1.33,1.19-1.84,1.78-.66-6.68,5.4-14.73,10.28-18.76,3.72-3,10.39-5.83,15.34-5.83-4.45-1.17-9.15,0-13.6,0,9.64-5.6,29.18-8.63,38.58-.7,0-2.8-.49-5.36,1.49-7.7-.25,3,1,6.07,1.48,9.1,1-3.27,4-7.7,7.42-8.4,0,2.74-2,4.56-2.81,7-.91,2.85,1.42,2.8,3.6,3.52a26.89,26.89,0,0,1,8.34,4.09c3,2.29,7,7.67,7.29,11.54a32.2,32.2,0,0,0-3.87-2.75c2.31,1.18,3.34,7,3.63,9.29a37.17,37.17,0,0,1,.26,10.37,50.13,50.13,0,0,1-2.65,10.44c-.69,1.8-1.21,4.49-3.25,5.22-.22.08-3.57-15.31-3.67-16.46-.16-1.62-1.6-8.27-.68-9.37-2.23,2.68-1.68,5.73-2.9,5.31C84.44,53.56,83,42.34,82,39.3c-.49,2.34-.74,4.9-1,7.23a4.65,4.65,0,0,1-1-1.4Z" transform="translate(-23.91 -15.98)"/><g class="cls-9"><polygon class="cls-10" points="47.65 118.92 32.99 118.91 33.09 92.96 47.66 92.74 47.65 118.92"/></g><path class="cls-11" d="M64.37,114.66a23.58,23.58,0,0,1-8.08-1.28l.35-.93a22.81,22.81,0,0,0,7.73,1.21,26.87,26.87,0,0,0,8-1.29l.37.93A27.37,27.37,0,0,1,64.37,114.66Z" transform="translate(-23.91 -15.98)"/><circle class="cls-12" cx="49.84" cy="106.18" r="0.78"/><path class="cls-12" d="M54.62,122.17c0-.13.35-.23.78-.23s.78.1.78.23-.35.22-.78.22S54.62,122.29,54.62,122.17Z" transform="translate(-23.91 -15.98)"/><circle class="cls-12" cx="49.84" cy="115.75" r="0.78"/><path class="cls-12" d="M54.62,131.73c0-.12.35-.22.78-.22s.78.1.78.22-.35.23-.78.23S54.62,131.86,54.62,131.73Z" transform="translate(-23.91 -15.98)"/><path class="cls-12" d="M60.33,103c-2.47-.13-4.77,1.32-5.88,1.85-.57,1.59-2.85,8.17-3,10-.19,2.73,3.14-3.81,3.77-5.27.82,3.86,1,8,1.78,11.86,0-9.22.08-6.53.42-11A4.62,4.62,0,0,1,60.15,108Z" transform="translate(-23.91 -15.98)"/><path class="cls-12" d="M68.45,103c2.47-.12,5,1.33,6.12,1.86.57,1.59,2.85,8.17,3,10,.19,2.73-2.88-3.81-3.52-5.27-.82,3.86-1.76,7.92-2.52,11.78,0-9.22.09-6.6-.25-11.1a4.25,4.25,0,0,0-2.69-2.3Z" transform="translate(-23.91 -15.98)"/><path class="cls-13" d="M74.94,113.38" transform="translate(-23.91 -15.98)"/><path class="cls-13" d="M74.94,113.38" transform="translate(-23.91 -15.98)"/></svg>