<svg xmlns="http://www.w3.org/2000/svg" viewBox="0 0 86.79 110.65"><defs><style>.cls-1{isolation:isolate;}.cls-2{fill:none;stroke:#b3d8e3;stroke-miterlimit:10;}.cls-3{fill:#603016;}.cls-4{fill:#edc3ae;}.cls-5{fill:#c04949;}.cls-6{opacity:0.65;mix-blend-mode:multiply;}.cls-7{fill:#e1b09f;}.cls-8{fill:#832819;}.cls-9{fill:#a15b48;}.cls-10{opacity:0.6;}.cls-11{fill:#f7b9ce;}.cls-12{fill:#9cc680;}.cls-13{fill:#e0af6b;}.cls-14{fill:#f8f8f8;}</style></defs><title>colored-female3</title><g class="cls-1"><g id="Layer_1" data-name="Layer 1"><path class="cls-2" d="M74.94,113.38" transform="translate(-19.96 -28.01)"/><path class="cls-2" d="M74.94,113.38" transform="translate(-19.96 -28.01)"/><path class="cls-3" d="M49.72,31.51C58.12,27,71.09,27.28,79.91,30c5,1.54,9.45,4.94,13.59,8,9,6.67,11.25,19.65,12.17,30,1,10.91-.08,21.18.7,32.1.48,6.85,2,22-7.79,23.29a10.9,10.9,0,0,1,.49-1.78c-1.85,8.37-11.7,9.57-18.59,8.58-4.28-.61-6.3-4.22-11-5.15-3.42-.86-3.56.57-6.55,1.57-1.42.56-2.85,0-4.27.28-3.93.87-8.15,3.31-12.45,3.33-2.1,0-14.52-2.65-14.6-5.43,0,1-.28,2.12-.2,3-3.7-1-6.09-6.89-4.47-10.07-1.38,8.53-6.61-3.49-6.92-6.46C19.51,106,21.27,100.86,22,95.92c2.09-14.43-3.59-33.07,2.69-46.29,4-8.4,15.41-16.92,24.09-17.91C48.77,31.72,48.72,32.08,49.72,31.51Z" transform="translate(-19.96 -28.01)"/><path class="cls-4" d="M66.36,111.74s-.43-6.24,0-7.17c0,0,8.4-.27,14.87-4,3-1.7,5.3-3.74,9.42-9.66.65-.93,3.92,1,7-1,7.61-4.79,5.07-12.68-3.66-12.11a112.1,112.1,0,0,1,2-13.52V58.94c-1.69-6.77-4.79-14.65-10.42-19.44a36.2,36.2,0,0,0-23.46-7.78l-3.48.1a37.88,37.88,0,0,0-10.45,2.25L46,35a33.06,33.06,0,0,0-7.32,4.52C33,44.29,29.92,52.17,28.23,58.94v5.35a112.13,112.13,0,0,1,2,13.52c-8.74-.57-11.27,7.32-3.67,12.11,3.1,2,6.38.07,7,1,4.12,5.92,6.47,8,9.42,9.66,6.47,3.72,14.87,4,14.87,4,.44.93,0,7.17,0,7.17a16.58,16.58,0,0,1-4.45,2.46s6.27,7.09,9.57,7.58c0,0,6.88-6.2,7.64-7.65A13.48,13.48,0,0,1,66.36,111.74Z" transform="translate(-19.96 -28.01)"/><path class="cls-4" d="M82.59,126.5c.15,2.77.65,9.83.42,11.66-.07.55-2.35.48-6.94.49l-.14-8.5Z" transform="translate(-19.96 -28.01)"/><path class="cls-5" d="M71.58,88.06c.9-.08-3.3,2.71-9.45,2.71a15.86,15.86,0,0,1-8.78-2.34C62.3,88.8,62.09,88.83,71.58,88.06Z" transform="translate(-19.96 -28.01)"/><g class="cls-6"><path class="cls-7" d="M30.91,85.42c-.32-2.4-2.37-5.4-4.44-4.16-.59.35-.67,1.3-.71,1.9-.1,1.85.73,4.2,2.69,4.75S31.14,87.1,30.91,85.42Z" transform="translate(-19.96 -28.01)"/></g><g class="cls-6"><path class="cls-7" d="M93.28,85.42c.32-2.4,2.38-5.4,4.45-4.16.58.35.67,1.3.7,1.9.1,1.85-.73,4.2-2.68,4.75S93.06,87.1,93.28,85.42Z" transform="translate(-19.96 -28.01)"/></g><path class="cls-8" d="M48.77,58.31v-.24a2.62,2.62,0,0,1,0-.27.61.61,0,0,1,.09-.35,4.33,4.33,0,0,1,.22-.42,2,2,0,0,1,.35-.37,1.46,1.46,0,0,1,.42-.32c.16-.08.32-.17.49-.24l.52-.13a1.79,1.79,0,0,1,.51,0,2.7,2.7,0,0,1,.89.12,1.85,1.85,0,0,1,.58.27,1.72,1.72,0,0,1,.2.14l-.24,0c-.15,0-.34.05-.57.11l-.36.08c-.13,0-.26.08-.39.1s-.53.16-.8.24-.25.11-.38.16a1.27,1.27,0,0,0-.35.17c-.1.07-.25.11-.33.17a2.48,2.48,0,0,1-.26.19.81.81,0,0,0-.24.21,1.9,1.9,0,0,1-.18.2Z" transform="translate(-19.96 -28.01)"/><path class="cls-9" d="M62,66.56s-.12.34-.28.94a9,9,0,0,0-.21,1.08c0,.42-.07.9-.07,1.42a12.41,12.41,0,0,0,.16,1.65,10,10,0,0,0,.5,1.77,8.84,8.84,0,0,0,.9,1.72,7.09,7.09,0,0,0,1.32,1.47c.47.44,1.11.8,1.68,1.26a4,4,0,0,1,.82.82,2.05,2.05,0,0,1,.42,1.2A2.31,2.31,0,0,1,66.88,81a4.67,4.67,0,0,1-.62.84,2.89,2.89,0,0,1-1.75.76,4.66,4.66,0,0,1-2.62-.49,2.61,2.61,0,0,1-.6-.42l-.18-.19.21.14A3.74,3.74,0,0,0,62,82a4.69,4.69,0,0,0,2.44.09,2.34,2.34,0,0,0,1.3-.7,2.47,2.47,0,0,0,.61-1.45c0-.46-.42-.88-.95-1.28s-1.15-.74-1.74-1.26a7.65,7.65,0,0,1-1.47-1.7,7.52,7.52,0,0,1-.92-2,9,9,0,0,1-.42-2,8.78,8.78,0,0,1,0-1.78,8.06,8.06,0,0,1,.28-1.46,9.18,9.18,0,0,1,.39-1.08,5.37,5.37,0,0,1,.33-.65Z" transform="translate(-19.96 -28.01)"/><g class="cls-10"><path class="cls-11" d="M40.76,81.37c1.25.65,4.8,1.17,4.81-1s-3.7-2.29-5.07-1.69C38.7,79.48,39.21,80.56,40.76,81.37Z" transform="translate(-19.96 -28.01)"/></g><path class="cls-3" d="M31.28,70.12c7.1-10.62,11.18-17.58,19.88-27.61,6.59,5.75,15,10.45,23.93,11A27.81,27.81,0,0,0,82.27,53a6.11,6.11,0,0,0,1.19,2.65,61.2,61.2,0,0,0,4.36,6c1.48,1.83,3.54,3.69,4.57,5.8,2,4,0,8.56.85,12.69,5.2-6.48,4.89-19.85,2.05-28.53-2.42-7.83-10-15.8-17.66-18.93-6-2.28-15.82-2.19-21.94-1.48-4.42.43-19.7,7.12-21.84,10.11,0,0-6.18,8.73-7.53,17.18-.58,3.59,1.56,17.38,2.77,21.65,0,0,.71,2.55,1.14.82S31.28,70.12,31.28,70.12Z" transform="translate(-19.96 -28.01)"/><path d="M51.81,76.09c1.6-.09,1.69-2.37,1.43-3.52a2.46,2.46,0,0,0-1-1.69,1.41,1.41,0,0,0-1.81.67C49.8,72.84,49.69,76.2,51.81,76.09Z" transform="translate(-19.96 -28.01)"/><path class="cls-8" d="M74.2,58.31,74,58.14l-.18-.2a.7.7,0,0,0-.24-.21,2.48,2.48,0,0,1-.26-.19c-.08-.06-.22-.1-.32-.17a1.49,1.49,0,0,0-.36-.17c-.12-.05-.25-.12-.38-.16s-.53-.18-.8-.24-.26-.08-.38-.1l-.36-.08c-.24-.06-.43-.07-.58-.11l-.23,0a1.12,1.12,0,0,1,.19-.14,2,2,0,0,1,.58-.27,2.7,2.7,0,0,1,.89-.12,1.79,1.79,0,0,1,.51,0l.52.13c.17.07.33.16.49.24a1.51,1.51,0,0,1,.43.32,1.7,1.7,0,0,1,.34.37,2.86,2.86,0,0,1,.22.42.61.61,0,0,1,.09.35c0,.1,0,.19,0,.27S74.2,58.31,74.2,58.31Z" transform="translate(-19.96 -28.01)"/><g class="cls-10"><path class="cls-11" d="M82.68,81.37c-1.25.65-4.79,1.17-4.81-1s3.7-2.29,5.07-1.69C84.74,79.48,84.23,80.56,82.68,81.37Z" transform="translate(-19.96 -28.01)"/></g><path d="M71.44,76.08c-1.6-.1-1.66-2.39-1.38-3.53a2.5,2.5,0,0,1,1.06-1.68,1.41,1.41,0,0,1,1.8.7C73.5,72.86,73.56,76.23,71.44,76.08Z" transform="translate(-19.96 -28.01)"/><path class="cls-12" d="M70.63,113.75l.19.13c2.18,1.18,4.74,1.61,6.75,3.09a16.59,16.59,0,0,1,3.33,2.68,10.1,10.1,0,0,1,1.68,6.88c-.06.94-6.66,3.29-6.65,4l.14,8.13c-4.85,0-7.66-.12-9.83-.12l-3.77,0-7.63.07c-1.72,0-3.85.07-6.67.07l.14-8.13c0-.7-6.56-3-6.66-4-.48-5,4-9.25,8.28-11,.9-.36,1.57-.84,2.45-1.2a5.27,5.27,0,0,0,2.43-1.6c.13-.19.33-.17.35-.43s-.4-.38-.38-.6c0-.53.57-.69,1.13-.72-.79-.33-.84-1.28.17-1.11-.72-.4-.61-1.22-.3-1.82,1.31,0,10.16.13,11.29.18,1.58.07.61.53.79,1.62,1.22-.11,1.22.6.52,1.3.71.07,1.75.93.9,1.59C69.31,112.74,70.21,113.45,70.63,113.75Z" transform="translate(-19.96 -28.01)"/><path class="cls-4" d="M41.65,126.5c-.15,2.77-.65,9.83-.42,11.66.07.55,2.35.48,6.94.49l.14-8.57Z" transform="translate(-19.96 -28.01)"/><path class="cls-13" d="M28.35,70.84c0,.77,1.56-32,33.77-32.41,32-.38,34,25.71,35.2,38.31,0,0,6.36-47.55-35.2-45C23,34.1,28.07,63.36,28.35,70.84Z" transform="translate(-19.96 -28.01)"/><path class="cls-14" d="M62.93,123.49a.13.13,0,0,1,0-.25q.51,0,1-.06a.15.15,0,0,1,.14.12.12.12,0,0,1-.11.13c-.33,0-.67,0-1,.06Zm-1,0h0c-.33,0-.67,0-1-.06a.11.11,0,0,1-.11-.13c0-.07.07-.14.13-.12q.5,0,1,.06a.12.12,0,0,1,.12.13A.12.12,0,0,1,61.93,123.48Zm3-.17a.13.13,0,0,1-.13-.1.13.13,0,0,1,.11-.15c.33,0,.65-.11,1-.18A.12.12,0,0,1,66,123a.13.13,0,0,1-.1.15c-.32.07-.65.14-1,.19Zm-5,0h0c-.33,0-.66-.11-1-.19a.11.11,0,0,1-.09-.15.13.13,0,0,1,.15-.09c.32.07.64.13,1,.18a.13.13,0,0,1,.1.15A.12.12,0,0,1,59.94,123.3ZM58,122.86h0a8.83,8.83,0,0,1-1-.33.11.11,0,0,1-.07-.16.12.12,0,0,1,.16-.07q.45.18.93.33a.12.12,0,0,1,.08.15A.11.11,0,0,1,58,122.86Zm8.87,0a.13.13,0,0,1,0-.25q.5-.15.93-.33a.12.12,0,0,1,.17.07.14.14,0,0,1-.07.16c-.3.12-.62.24-.95.34Zm-10.72-.74h-.06c-.3-.15-.6-.32-.88-.49a.12.12,0,1,1,.13-.21q.42.25.87.48a.12.12,0,0,1,0,.16A.11.11,0,0,1,56.14,122.12Zm12.57,0a.11.11,0,0,1-.11-.07.12.12,0,0,1,.05-.16c.29-.15.58-.31.86-.49a.12.12,0,1,1,.13.21c-.28.18-.58.35-.87.5Zm-14.27-1a.13.13,0,0,1-.08,0c-.27-.2-.53-.42-.78-.64a.13.13,0,0,1,0-.18.12.12,0,0,1,.17,0c.24.22.5.43.76.63a.13.13,0,0,1,0,.18A.14.14,0,0,1,54.44,121.08Zm16,0a.14.14,0,0,1-.1,0,.13.13,0,0,1,0-.18c.26-.19.51-.41.76-.63a.13.13,0,1,1,.17.19c-.25.22-.52.44-.78.64A.11.11,0,0,1,70.4,121.05ZM53,119.74a.1.1,0,0,1-.09,0c-.23-.25-.45-.51-.66-.77a.13.13,0,0,1,0-.18.12.12,0,0,1,.17,0,9.51,9.51,0,0,0,.64.76.13.13,0,0,1,0,.18A.11.11,0,0,1,53,119.74Zm18.92,0a.09.09,0,0,1-.08,0,.12.12,0,0,1,0-.17,9.51,9.51,0,0,0,.64-.76.14.14,0,0,1,.18,0,.14.14,0,0,1,0,.18c-.21.27-.43.53-.65.77A.18.18,0,0,1,71.88,119.71Zm-20.14-1.55a.17.17,0,0,1-.11-.06c-.17-.28-.34-.58-.5-.88a.13.13,0,0,1,0-.17.12.12,0,0,1,.17.06c.15.29.32.58.49.85a.14.14,0,0,1,0,.18Zm21.37,0-.07,0a.12.12,0,0,1,0-.17c.18-.29.34-.58.49-.86a.12.12,0,1,1,.22.11,9.82,9.82,0,0,1-.5.88A.11.11,0,0,1,73.11,118.13Zm-22.29-1.75a.13.13,0,0,1-.12-.08,6.51,6.51,0,0,1-.32-1,.12.12,0,0,1,.09-.15.12.12,0,0,1,.15.09,7,7,0,0,0,.32.94.14.14,0,0,1-.07.16Zm23.18,0h0a.13.13,0,0,1-.07-.16,4.8,4.8,0,0,0,.23-.88.12.12,0,0,1,.14-.11.12.12,0,0,1,.1.14,4,4,0,0,1-.24.93A.11.11,0,0,1,74,116.34Z" transform="translate(-19.96 -28.01)"/><path class="cls-14" d="M47.63,129a.1.1,0,0,1-.07,0l-.85-.51a.13.13,0,0,1,0-.18.13.13,0,0,1,.17,0l.85.52a.13.13,0,0,1,.05.17A.14.14,0,0,1,47.63,129Zm-1.71-1-.07,0-.85-.52a.12.12,0,0,1,.13-.21l.85.51a.14.14,0,0,1,.05.18A.17.17,0,0,1,45.92,128Zm-1.71-1a.08.08,0,0,1-.07,0l-.85-.51a.14.14,0,0,1,0-.18.14.14,0,0,1,.18,0l.85.52a.12.12,0,0,1,0,.17A.11.11,0,0,1,44.21,126.94Zm-1.71-1-.07,0-.85-.52a.13.13,0,0,1,0-.17.12.12,0,0,1,.17,0l.86.51a.13.13,0,0,1,0,.18A.13.13,0,0,1,42.5,125.91Z" transform="translate(-19.96 -28.01)"/><path class="cls-14" d="M75.93,129.42a.11.11,0,0,1-.11-.06.12.12,0,0,1,0-.17l.86-.51a.12.12,0,0,1,.17,0,.12.12,0,0,1,0,.17l-.86.52Zm1.71-1a.14.14,0,0,1-.11-.06.13.13,0,0,1,0-.17l.86-.52a.13.13,0,0,1,.17,0,.13.13,0,0,1,0,.18l-.86.51A.07.07,0,0,1,77.64,128.39Zm1.71-1a.14.14,0,0,1-.11-.06.14.14,0,0,1,.05-.18l.85-.51a.12.12,0,0,1,.13.21l-.85.52Zm1.71-1a.11.11,0,0,1-.1-.06.12.12,0,0,1,0-.17l.85-.52a.14.14,0,0,1,.18.05.13.13,0,0,1,0,.17l-.85.52Z" transform="translate(-19.96 -28.01)"/><path class="cls-14" d="M62.69,124.57a.56.56,0,1,1-.56-.56A.56.56,0,0,1,62.69,124.57Z" transform="translate(-19.96 -28.01)"/></g></g></svg>