<svg id="Layer_1" data-name="Layer 1" xmlns="http://www.w3.org/2000/svg" viewBox="0 0 98.37 111.86"><defs><style>.cls-1{fill:none;stroke:#b3d8e3;stroke-miterlimit:10;}.cls-2{fill:#1a1a1a;}.cls-3{fill:#bff7ee;}.cls-4{fill:#ffd7c7;}.cls-5{fill:#fb9a80;}.cls-6{fill:#ffbdaa;}.cls-7{fill:#db591b;}.cls-8{fill:#ffc2c2;}.cls-9{fill:#00b2ae;}.cls-10{fill:#fcce4d;}</style></defs><title>colored-female2</title><path class="cls-1" d="M74.94,113.38" transform="translate(-13.21 -24.16)"/><path class="cls-1" d="M74.94,113.38" transform="translate(-13.21 -24.16)"/><path class="cls-2" d="M90.9,109.64c-.91,4.1-5.68,9-10.24,8-1.26-.28-1.76-1.07-2.76-1.73s-.72-.68-1.39.62a6.65,6.65,0,0,1-6.35,3.77c-2-.14-3.92-1.31-4.11-3.41a4.52,4.52,0,0,1-5,3.44c-2.42-.34-3.24-1.55-4.1-3.57a5.79,5.79,0,0,1-6.47,2.85c-2.06-.5-2.44-2.11-3.45-3.6-1.32.67-2.12,1.64-3.75,1.74a7.45,7.45,0,0,1-4-1.14,11.9,11.9,0,0,1-3.48-3.11c-.34-.43-2.37-3.33-1.9-3.87-5.1,5.74-11.48-.63-12.11-7-6.38,0-7.66-6.38-3.83-10.84-11.48-4.47,1.28-17.86,3.19-25.52,3.14-11.52,2.43-24.82,13.13-32.58,4.74-3.44,10.59-5.41,16.23-6.77,4.64-1.12,9.29-2.45,14.08-2.71,11.32-.62,22.7,5,30.13,13.38a21.11,21.11,0,0,1,4.49,7.64c1.91,6.38,2.55,14,4.46,21,1.92,7.66,14.67,21,3.19,25.52,3.83,4.46,2.55,10.84-3.83,10.84C102.38,109,96,115.38,90.9,109.64Z" transform="translate(-13.21 -24.16)"/><path class="cls-3" d="M71.35,108.6c.6.92-.84,2-1.48,2.44a5.58,5.58,0,0,1-1.82.92,10.68,10.68,0,0,1-1.48.37,8.67,8.67,0,0,0-1.25.12c-.48.12-1,.19-1.45.27-2.77.41-6.61.33-8.3-2.25-1.81-2.76,3-3,5.07-3.28a23.56,23.56,0,0,1,7.55.28A15.12,15.12,0,0,1,71.35,108.6Z" transform="translate(-13.21 -24.16)"/><path class="cls-4" d="M67.2,109.1s-.42-6.23,0-7.16c0,0,8.4-.27,14.87-4,3-1.69,5.3-3.73,9.42-9.65.65-.94,3.93,1,7-1,7.61-4.79,5.08-12.68-3.66-12.12a110.74,110.74,0,0,1,2-13.52V56.3c-1.7-6.76-4.79-14.65-10.43-19.44A36.29,36.29,0,0,0,63,29.08l-3.48.1A38,38,0,0,0,49,31.44l-2.21.91a33,33,0,0,0-7.32,4.51c-5.64,4.79-8.73,12.68-10.43,19.44v5.35a110.74,110.74,0,0,1,2,13.52c-8.74-.56-11.27,7.33-3.66,12.12,3.09,2,6.37.06,7,1,4.12,5.92,6.47,8,9.42,9.65,6.47,3.73,14.87,4,14.87,4,.44.93,0,7.16,0,7.16a16.15,16.15,0,0,1-4.45,2.46s6.27,7.09,9.57,7.58c0,0,6.88-6.2,7.64-7.64A13.75,13.75,0,0,1,67.2,109.1Z" transform="translate(-13.21 -24.16)"/><path class="cls-4" d="M83.43,123.87c.15,2.77.65,9.82.42,11.66-.07.55-2.35.48-6.94.49l-.14-8.5Z" transform="translate(-13.21 -24.16)"/><path class="cls-5" d="M53.71,84l.78.42c.26.11.56.25.91.42s.77.29,1.22.44.94.3,1.47.41,1.08.22,1.66.32,1.19.12,1.8.19,1.25.07,1.85,0,1.31,0,1.9-.09a17.32,17.32,0,0,0,1.78-.24,14.72,14.72,0,0,0,1.64-.36c.53-.12,1-.33,1.45-.47s.83-.35,1.19-.5l.89-.47c.47-.3.76-.46.76-.46s-.23.23-.65.62l-.81.63a12.14,12.14,0,0,1-1.14.7,10.87,10.87,0,0,1-1.45.66l-.82.29c-.29.09-.58.15-.88.22a12.63,12.63,0,0,1-1.89.34c-.66.11-1.28.08-1.93.13s-1.32,0-2-.07a18.89,18.89,0,0,1-1.88-.29,14.1,14.1,0,0,1-3.18-1.06,12.51,12.51,0,0,1-2-1.23C54,84.18,53.71,84,53.71,84Z" transform="translate(-13.21 -24.16)"/><path class="cls-6" d="M31.75,82.78c-.32-2.4-2.37-5.4-4.44-4.16-.59.35-.67,1.31-.7,1.9-.11,1.85.72,4.2,2.68,4.75S32,84.47,31.75,82.78Z" transform="translate(-13.21 -24.16)"/><path class="cls-6" d="M94.12,82.78c.33-2.4,2.38-5.4,4.45-4.16.58.35.67,1.31.7,1.9.11,1.85-.73,4.2-2.68,4.75S93.9,84.47,94.12,82.78Z" transform="translate(-13.21 -24.16)"/><path class="cls-7" d="M50,56.63a1.8,1.8,0,0,1,0-.23c0-.08,0-.16,0-.26a.68.68,0,0,1,.11-.33,3.29,3.29,0,0,1,.23-.39,1.61,1.61,0,0,1,.34-.35,1.29,1.29,0,0,1,.42-.3,4.09,4.09,0,0,1,.47-.23l.51-.13a1.63,1.63,0,0,1,.49,0,3,3,0,0,1,.88.08,2.29,2.29,0,0,1,.57.23,1.35,1.35,0,0,1,.2.11l-.23,0a5.29,5.29,0,0,0-.57.06c-.12,0-.24.05-.37.06s-.26.06-.4.08-.55.15-.83.23l-.39.17a1.55,1.55,0,0,0-.36.19,3.19,3.19,0,0,0-.33.2,1.71,1.71,0,0,1-.26.21c-.19.12-.28.34-.38.44A1.84,1.84,0,0,1,50,56.63Z" transform="translate(-13.21 -24.16)"/><path class="cls-5" d="M63.45,69.73l-.08.85a8.52,8.52,0,0,0-.06,1,11,11,0,0,0,0,1.24,7.25,7.25,0,0,0,.25,1.4,3,3,0,0,0,.26.71l.07.18s.05.11,0,0l.06.08.25.36a2.93,2.93,0,0,0,.54.46,7.23,7.23,0,0,0,.74.41,6.63,6.63,0,0,1,1.68,1l.2.18.16.24a2.72,2.72,0,0,1,.29.54l.14.44a3.18,3.18,0,0,1,.07.58,2.31,2.31,0,0,1-1,1.88,4.18,4.18,0,0,1-1.71.66,5.68,5.68,0,0,1-1.58.05,4.62,4.62,0,0,1-1.29-.3,2.9,2.9,0,0,1-.5-.23,2,2,0,0,1-.4-.25,1.58,1.58,0,0,1-.45-.46L61,80.63l.18.14.2.16.32.16a1.2,1.2,0,0,0,.4.16,1.86,1.86,0,0,0,.49.13,5.16,5.16,0,0,0,1.21.08,5.91,5.91,0,0,0,1.4-.2,3.69,3.69,0,0,0,1.34-.64,1.41,1.41,0,0,0,.59-1.13c0-.11,0-.18,0-.33L67,78.72s-.12-.17-.17-.26l-.1-.15-.14-.12a6.13,6.13,0,0,0-1.44-.9,6.62,6.62,0,0,1-.83-.51,4,4,0,0,1-.74-.74l-.22-.37-.06-.09a.75.75,0,0,1-.07-.15l-.07-.22a4,4,0,0,1-.23-.85,6.52,6.52,0,0,1-.1-1.56,10,10,0,0,1,.4-2.26,4.13,4.13,0,0,1,.2-.6Z" transform="translate(-13.21 -24.16)"/><path class="cls-8" d="M41.6,80.65c1.25.65,4.8,1.17,4.81-1s-3.7-2.3-5.06-1.69C39.54,78.75,40.05,79.84,41.6,80.65Z" transform="translate(-13.21 -24.16)"/><path class="cls-2" d="M32.12,67.49C43.19,63,49.84,50.89,52,39.87,59.83,46.71,71.07,51,81.61,49a12.8,12.8,0,0,0,2.13,7.83c1.29,1.85,3.42,4.69,5.41,5.83a18.87,18.87,0,0,1,4,3.53c.71,1,.82,3.47.88,4.21.2,2.27-.36,5,.07,7.13C99.28,71,99,57.67,96.13,49c-2.42-7.83-10-15.81-17.65-18.94-6-2.28-15.83-2.19-22-1.48-4.41.43-19.7,7.13-21.84,10.12,0,0-6.18,8.73-7.53,17.17-.58,3.6,1.57,17.39,2.77,21.66,0,0,.71,2.54,1.14.81S32.12,67.49,32.12,67.49Z" transform="translate(-13.21 -24.16)"/><path d="M54.34,73.41c1.58-.32,1.34-2.59.92-3.68A2.49,2.49,0,0,0,54,68.2a1.42,1.42,0,0,0-1.7.93C51.89,70.48,52.26,73.83,54.34,73.41Z" transform="translate(-13.21 -24.16)"/><path class="cls-7" d="M75.11,56.63a1.84,1.84,0,0,1-.15-.18,1.79,1.79,0,0,0-.38-.44,1.71,1.71,0,0,1-.26-.21c-.08-.08-.22-.12-.32-.2a1.43,1.43,0,0,0-.37-.19c-.13,0-.25-.12-.39-.17a8.56,8.56,0,0,0-.83-.23c-.14,0-.27-.07-.4-.08a3.37,3.37,0,0,1-.36-.06,5.43,5.43,0,0,0-.58-.06l-.23,0a1.35,1.35,0,0,1,.2-.11,2.58,2.58,0,0,1,.58-.23,3,3,0,0,1,.87-.08,1.73,1.73,0,0,1,.5,0l.5.13a4.23,4.23,0,0,1,.48.23,1.54,1.54,0,0,1,.42.3,1.88,1.88,0,0,1,.34.35c.09.13.16.27.23.39a.65.65,0,0,1,.1.33c0,.1,0,.18,0,.26S75.11,56.63,75.11,56.63Z" transform="translate(-13.21 -24.16)"/><path class="cls-8" d="M83.52,80.65c-1.24.65-4.79,1.17-4.8-1s3.7-2.3,5.06-1.69C85.58,78.75,85.07,79.84,83.52,80.65Z" transform="translate(-13.21 -24.16)"/><path d="M70.71,73.41c-1.58-.32-1.34-2.59-.92-3.68a2.52,2.52,0,0,1,1.27-1.53,1.42,1.42,0,0,1,1.7.93C73.16,70.48,72.79,73.83,70.71,73.41Z" transform="translate(-13.21 -24.16)"/><path class="cls-9" d="M71.43,111.18C75,112.34,84,115.75,83.94,125c0,.94-7.18,2.14-7.17,2.84l.14,8.14c-4.85,0-7.66-.12-9.83-.12l-3.77,0-7.63.07C54,136,51.83,136,49,136l.14-8.14c0-.7-6.95-1.9-6.95-2.84,0-9.79,8.71-12.7,12.29-13.86,0,0,7.45,1.49,8.87,1.48A40.64,40.64,0,0,0,71.43,111.18Z" transform="translate(-13.21 -24.16)"/><path class="cls-4" d="M42.48,125.23c-.16,2.77-.64,8.46-.41,10.3.07.55,2.35.48,6.94.49l.14-8.57Z" transform="translate(-13.21 -24.16)"/><path class="cls-10" d="M90.29,37c-2.21,2.17-4.37,4.75-6.85,6.94a7.09,7.09,0,0,0,1.73,1.81c1.61-1.12,5.57-5.53,6.83-7.1A6.75,6.75,0,0,0,90.29,37Z" transform="translate(-13.21 -24.16)"/><path class="cls-3" d="M56.51,108a63.48,63.48,0,0,0,6.85,4.66,9.34,9.34,0,0,1-7.14,1.25C52.53,113.15,50.53,110.05,56.51,108Z" transform="translate(-13.21 -24.16)"/><path class="cls-3" d="M69.73,107.93a63.48,63.48,0,0,1-6.85,4.66A8,8,0,0,0,70,113.84C73.62,112.75,75.7,110,69.73,107.93Z" transform="translate(-13.21 -24.16)"/><path class="cls-3" d="M42.2,125c-.21.87,0,3.17,1.3,1.51.15,1.16.94,2.24,1.88.8.21,1.44,1.51,2.16,2.16.5.5,1.66,2,1,2-.58A75.31,75.31,0,0,1,42.2,125Z" transform="translate(-13.21 -24.16)"/><path class="cls-3" d="M83.94,125c.22.87,0,3.17-1.3,1.51-.14,1.16-.93,2.24-1.87.8-.22,1.44-1.51,2.16-2.16.5-.51,1.66-2,1-2-.58A75.76,75.76,0,0,0,83.94,125Z" transform="translate(-13.21 -24.16)"/></svg>