<svg id="Layer_1" data-name="Layer 1" xmlns="http://www.w3.org/2000/svg" viewBox="0 0 83.35 110.76"><defs><style>.cls-1{fill:none;stroke:#b3d8e3;stroke-miterlimit:10;}.cls-2{fill:#eff6f8;}.cls-3{fill:#42210b;}.cls-4{fill:#333e40;}.cls-5{fill:#ffd7c7;}.cls-6{fill:#fb9a80;}.cls-7{fill:#ffbdaa;}.cls-8{fill:#ffc2c2;}.cls-9{fill:#fff;}.cls-10{fill:#fdb02a;}.cls-11{fill:#576468;}.cls-12{fill:#584f52;}.cls-13{fill:#231f20;}</style></defs><title>colored-female1</title><path class="cls-1" d="M74.94,113.38" transform="translate(-22.12 -21.84)"/><path class="cls-1" d="M74.94,113.38" transform="translate(-22.12 -21.84)"/><path class="cls-2" d="M55.07,107.75v-2.12a35.35,35.35,0,0,1,14.63,0c1,.24-.06,4.92-.06,4.92l-4-.36-10.62-.65Z" transform="translate(-22.12 -21.84)"/><path class="cls-3" d="M37.2,86.88a69.34,69.34,0,0,1-9.82,8.86c-2.66,2.05-6.74,5.27-4.71,9.08.2-.29.54-.51.72-.79a6.73,6.73,0,0,0-.19,4.8c.83,2.16,2,1.67,1.39-.21-.61,2.84,4.76,9.43,5,5.26,1.58,1.05,2.16,3.53,4.61,3.12,1.18-.2,2.26-1.62,3.14-2.35,3.91.88,5.11-.44,6-4.37a23.15,23.15,0,0,0,.47-6.55c-.07-2.24-.93-4.34-1.21-6.55C42,91.86,39.68,88.08,38,83.07" transform="translate(-22.12 -21.84)"/><path class="cls-4" d="M41.18,91.73A18.78,18.78,0,0,1,37.85,90c-.68-.42-1.92-1.74-2.69-1.82s-3.39,2.08-3,2.93c.93,2.19,2.87,3.28,5,4.16,1.29.54,4.71,1.88,5.71,1a3.86,3.86,0,0,0,.57-2.74C43.1,92.12,42.53,92.23,41.18,91.73Z" transform="translate(-22.12 -21.84)"/><path class="cls-3" d="M84.68,86.79a68.7,68.7,0,0,0,10.62,7.9c2.83,1.8,7.2,4.62,5.53,8.6-.22-.26-.58-.46-.79-.72a6.75,6.75,0,0,1,.64,4.77c-.63,2.22-1.85,1.84-1.41-.08.88,2.76-3.85,9.83-4.5,5.71-1.48,1.18-1.82,3.71-4.3,3.53-1.19-.08-2.4-1.41-3.35-2-3.8,1.25-5.12,0-6.37-3.79a22.67,22.67,0,0,1-1.09-6.47c-.13-2.23.52-4.41.59-6.64.17-5.36,2.08-9.33,3.33-14.48" transform="translate(-22.12 -21.84)"/><path class="cls-4" d="M81.18,92a18,18,0,0,0,3.15-2c.64-.49,1.75-1.91,2.51-2.06s3.57,1.75,3.29,2.63c-.72,2.27-2.54,3.53-4.55,4.61-1.23.66-4.51,2.31-5.59,1.5A3.86,3.86,0,0,1,79.16,94C79.3,92.56,79.88,92.62,81.18,92Z" transform="translate(-22.12 -21.84)"/><path class="cls-3" d="M49.16,25.66a26,26,0,0,1,3.14-1.57,46.15,46.15,0,0,1,28-.16c5,1.54,9.44,4.94,13.59,8,13.44,10,15.66,37.17,4.41,49.44-5.94,6.48-13.08,12.69-21.84,14.08-9.8,1.56-23.94,2.25-33.68-.22C31,92.27,26,82.73,23.62,71.84c-4.11-19.2,4.26-42.4,25.54-46.18" transform="translate(-22.12 -21.84)"/><path class="cls-5" d="M66.7,105.69s-.43-6.24,0-7.17c0,0,8.4-.27,14.86-4,3-1.7,5.31-3.74,9.42-9.66.65-.93,3.93,1,7-1,7.61-4.79,5.07-12.68-3.66-12.11a112.1,112.1,0,0,1,2-13.52V52.88c-1.69-6.76-4.79-14.64-10.42-19.43a36.2,36.2,0,0,0-23.46-7.78l-3.48.1A37.88,37.88,0,0,0,48.53,28l-2.21.91A33.36,33.36,0,0,0,39,33.45c-5.63,4.79-8.73,12.67-10.42,19.43v5.36a110.14,110.14,0,0,1,2,13.52c-8.73-.57-11.26,7.32-3.66,12.11,3.1,2,6.38.07,7,1,4.12,5.92,6.47,8,9.42,9.66,6.47,3.72,14.87,4,14.87,4,.44.93,0,7.17,0,7.17-2.07,1.73-3.46,1.9-4.44,2.46,0,0,6.27,7.09,9.57,7.58,0,0,6.87-6.2,7.64-7.65A13.48,13.48,0,0,1,66.7,105.69Z" transform="translate(-22.12 -21.84)"/><path class="cls-6" d="M53.63,80.8s.28.13.76.39l.88.41,1.17.43c.44.12.9.3,1.41.4l.78.19.82.14c.56.12,1.15.12,1.73.2S62.38,83,63,83s1.23,0,1.81-.06,1.17-.07,1.72-.19a15.34,15.34,0,0,0,1.61-.3c.51-.1,1-.26,1.41-.38l1.18-.43.88-.4.76-.39s-.23.21-.66.56a11.9,11.9,0,0,1-1.94,1.19,12.9,12.9,0,0,1-1.43.57l-.8.26-.85.19a14.89,14.89,0,0,1-1.83.28c-.63.06-1.21.06-1.87.1s-1.26-.05-1.88-.12a14.54,14.54,0,0,1-1.81-.3l-.85-.2-.8-.27a11.68,11.68,0,0,1-3.36-1.8C53.86,81,53.63,80.8,53.63,80.8Z" transform="translate(-22.12 -21.84)"/><path class="cls-7" d="M31.25,79.37C30.93,77,28.88,74,26.8,75.21c-.58.35-.66,1.3-.7,1.9-.1,1.85.73,4.2,2.69,4.75S31.48,81.05,31.25,79.37Z" transform="translate(-22.12 -21.84)"/><path class="cls-7" d="M93.62,79.37C93.94,77,96,74,98.07,75.21c.58.35.66,1.3.7,1.9.1,1.85-.73,4.2-2.68,4.75S93.4,81.05,93.62,79.37Z" transform="translate(-22.12 -21.84)"/><path class="cls-4" d="M49.51,54.17s0-.09,0-.24a2.62,2.62,0,0,1,0-.27.73.73,0,0,1,.09-.35,3.68,3.68,0,0,1,.23-.42,2,2,0,0,1,.34-.37,1.51,1.51,0,0,1,.43-.32c.16-.08.32-.17.49-.24l.52-.13a2.19,2.19,0,0,1,.51,0,2.7,2.7,0,0,1,.89.12,1.9,1.9,0,0,1,.57.27,1.72,1.72,0,0,1,.2.14l-.24.06c-.14,0-.34,0-.57.11l-.36.07c-.12,0-.25.08-.38.1s-.54.16-.81.24l-.38.16a1.89,1.89,0,0,0-.35.17c-.1.07-.24.11-.32.18l-.26.18a.7.7,0,0,0-.24.21,1.88,1.88,0,0,1-.19.2Z" transform="translate(-22.12 -21.84)"/><path class="cls-6" d="M62.32,64.05s0,.27.08.73.1,1.1.18,1.89c.05.38.08.8.17,1.23,0,.21.07.43.13.65s.13.42.19.64a4.24,4.24,0,0,0,.65,1.18,2,2,0,0,0,.2.26,1.31,1.31,0,0,0,.25.21,4.76,4.76,0,0,0,.6.37,7.21,7.21,0,0,1,1.42.9,1.82,1.82,0,0,1,.52.85,2.05,2.05,0,0,1,0,1v0h0l0,.07v0l0,.08-.06.17a2.44,2.44,0,0,1-.14.34,6.24,6.24,0,0,1-.48.68c-.17.17-.34.34-.51.49l-.54.37a3.64,3.64,0,0,1-1,.43,2.84,2.84,0,0,1-.85.12,1.61,1.61,0,0,1-.54-.09l-.19-.06h.2a2,2,0,0,0,.51,0,2.45,2.45,0,0,0,.74-.28,4.68,4.68,0,0,0,.85-.55l.42-.39.38-.47c.12-.16.18-.33.28-.48s.07-.22.11-.33l0-.18,0-.09v0h0s0,.1,0,0h0v0a1,1,0,0,0-.34-1,6.34,6.34,0,0,0-1.24-.73A3.61,3.61,0,0,1,63,71a4.7,4.7,0,0,1-.72-1.5c0-.26-.11-.51-.16-.76s0-.48-.06-.72a11.38,11.38,0,0,1,0-1.3C62.13,65.09,62.32,64.05,62.32,64.05Z" transform="translate(-22.12 -21.84)"/><path class="cls-8" d="M41.1,75.32c1.25.65,4.79,1.17,4.81-1s-3.7-2.29-5.07-1.69C39,73.42,39.55,74.51,41.1,75.32Z" transform="translate(-22.12 -21.84)"/><path d="M51.57,70c1.61-.1,1.67-2.38,1.4-3.52a2.48,2.48,0,0,0-1-1.68,1.4,1.4,0,0,0-1.81.69C49.53,66.8,49.45,70.17,51.57,70Z" transform="translate(-22.12 -21.84)"/><path class="cls-4" d="M74.61,53.21l-.18-.16-.18-.2a.64.64,0,0,0-.24-.22,2.4,2.4,0,0,1-.26-.18c-.08-.07-.22-.11-.32-.18a1.71,1.71,0,0,0-.36-.17c-.12-.05-.24-.11-.37-.15a8.28,8.28,0,0,0-.81-.24c-.13,0-.26-.09-.38-.1l-.36-.08c-.23-.07-.43-.07-.57-.11l-.24-.06.19-.14a2,2,0,0,1,.58-.26,2.45,2.45,0,0,1,.89-.13,1.77,1.77,0,0,1,.51.05L73,51c.17.07.33.17.49.25a1.48,1.48,0,0,1,.43.31,2.33,2.33,0,0,1,.34.37,3.06,3.06,0,0,1,.23.43.69.69,0,0,1,.09.34c0,.1,0,.2,0,.27S74.61,53.21,74.61,53.21Z" transform="translate(-22.12 -21.84)"/><path class="cls-8" d="M83,75.32c-1.25.65-4.8,1.17-4.81-1s3.7-2.29,5.07-1.69C85.08,73.42,84.57,74.51,83,75.32Z" transform="translate(-22.12 -21.84)"/><path d="M72.51,70c-1.61-.08-1.7-2.37-1.45-3.51a2.5,2.5,0,0,1,1-1.7,1.42,1.42,0,0,1,1.82.67C74.5,66.78,74.63,70.14,72.51,70Z" transform="translate(-22.12 -21.84)"/><path class="cls-5" d="M82.92,120.45c.16,2.77.66,9.83.43,11.66-.07.55-2.35.48-6.94.49l-.15-8.5Z" transform="translate(-22.12 -21.84)"/><path class="cls-4" d="M71.46,107.06c3.58,1.16,5.29,4.61,4.8,12-.06.94,0,4.73,0,5.43l.15,8.13c-4.85,0-7.66-.12-9.83-.12H62.81l-7.64.06c-1.71,0-3.84.07-6.66.07l.14-8.13c0-.7.06-4.49,0-5.43-.49-7.37,2.34-10.84,5.92-12a18,18,0,0,1,5.62,3.52c1.61,1.63,2,4.34,2.27,4.35L64.74,110Z" transform="translate(-22.12 -21.84)"/><path class="cls-5" d="M42,120.45c-.15,2.77-.65,9.83-.42,11.66.07.55,2.35.48,6.94.49l.14-8.57Z" transform="translate(-22.12 -21.84)"/><path class="cls-9" d="M63.94,118.12a.92.92,0,1,1-.92-.91A.92.92,0,0,1,63.94,118.12Z" transform="translate(-22.12 -21.84)"/><path class="cls-9" d="M63.94,122A.92.92,0,1,1,63,121,.92.92,0,0,1,63.94,122Z" transform="translate(-22.12 -21.84)"/><path class="cls-10" d="M51.64,107.75s-7.79,3.06-9.28,9.65-.79,15.2-.79,15.2H51.64Z" transform="translate(-22.12 -21.84)"/><path class="cls-10" d="M73.09,107.75s7.8,3.06,9.29,9.65.79,15.2.79,15.2H73.09Z" transform="translate(-22.12 -21.84)"/><path class="cls-3" d="M31.82,64.1a21,21,0,0,1,1.34-5.38,58.79,58.79,0,0,1,4.7-9.51,68.31,68.31,0,0,1,8-9.77c-1,6,8.33,14.12,13.37,14.77-.9-2-3.54-5-4.94-8,6.06,6,15.36,12.28,24.53,9.39a73.13,73.13,0,0,1-8.18-9.27A72.29,72.29,0,0,0,82.24,55c3,1.61,5.25,3.14,8.34,4.22,3.45,1.21,3.55,1.84,3.55,4.56,0,1.74.38,9.17-.55,10.33,5.2-6.48,4.89-19.85,2-28.53-2.42-7.83-10-15.8-17.66-18.93C72,24.36,62.15,24.45,56,25.16c-4.41.43-19.69,7.12-21.83,10.11,0,0-6.19,8.73-7.54,17.18C26.08,56,28.22,69.83,29.43,74.1c0,0,.71,2.55,1.14.81C31.45,71.34,31.35,67.69,31.82,64.1Z" transform="translate(-22.12 -21.84)"/><path class="cls-11" d="M33,84.86a1.65,1.65,0,0,1-1.44,1.8,1.84,1.84,0,0,1,0-3.59A1.64,1.64,0,0,1,33,84.86Z" transform="translate(-22.12 -21.84)"/><path class="cls-11" d="M94.79,84.86a1.47,1.47,0,1,1-2.87,0,1.47,1.47,0,1,1,2.87,0Z" transform="translate(-22.12 -21.84)"/><rect class="cls-12" x="51.66" y="87.06" width="1" height="23.58"/><rect class="cls-12" x="27.75" y="87.06" width="1" height="23.58"/><path class="cls-9" d="M62.46,115.47l-1.62-6.31c-3.52-.14-5.77-3.53-5.77-3.53l-6,2.79,5.15,5.07,4.81-3.3Z" transform="translate(-22.12 -21.84)"/><path class="cls-9" d="M62.31,115.47l1.62-6.31c3.52-.14,5.77-3.53,5.77-3.53l5.94,2.79-5.14,5.07-4.81-3.3Z" transform="translate(-22.12 -21.84)"/><path class="cls-13" d="M46.75,78.15A11.68,11.68,0,1,1,58.43,66.47,11.69,11.69,0,0,1,46.75,78.15Zm0-22.36A10.68,10.68,0,1,0,57.43,66.47,10.69,10.69,0,0,0,46.75,55.79Z" transform="translate(-22.12 -21.84)"/><path class="cls-13" d="M77.46,78.15A11.68,11.68,0,1,1,89.14,66.47,11.69,11.69,0,0,1,77.46,78.15Zm0-22.36A10.68,10.68,0,1,0,88.14,66.47,10.69,10.69,0,0,0,77.46,55.79Z" transform="translate(-22.12 -21.84)"/><path class="cls-13" d="M66.29,67a.53.53,0,0,1-.4-.19,4.56,4.56,0,0,0-3.41-2c-2.27-.08-4.16,2-4.18,2a.5.5,0,0,1-.71,0,.51.51,0,0,1,0-.71c.09-.1,2.21-2.47,5-2.36a5.52,5.52,0,0,1,4.18,2.38.52.52,0,0,1-.08.71A.56.56,0,0,1,66.29,67Z" transform="translate(-22.12 -21.84)"/><rect class="cls-13" x="11.72" y="42.87" width="1.72" height="1.75"/><rect class="cls-13" x="66.52" y="42.87" width="1.72" height="1.75"/><path class="cls-13" d="M28.87,72.26a.52.52,0,0,1-.35-.14.5.5,0,0,1,0-.71l5.85-6.16a.48.48,0,0,1,.7,0,.49.49,0,0,1,0,.7L29.23,72.1A.52.52,0,0,1,28.87,72.26Z" transform="translate(-22.12 -21.84)"/><path class="cls-13" d="M95.09,72.23a.5.5,0,0,1-.37-.16l-5.59-6.14a.5.5,0,0,1,0-.71.49.49,0,0,1,.7,0l5.59,6.14a.5.5,0,0,1-.37.84Z" transform="translate(-22.12 -21.84)"/></svg>