<svg id="Layer_1" data-name="Layer 1" xmlns="http://www.w3.org/2000/svg" viewBox="0 0 106.15 123.99"><defs><style>.cls-1{fill:#fff;}</style></defs><title>female2</title><path class="cls-1" d="M45.26,59a2.76,2.76,0,0,1,1.29-1.76,5.94,5.94,0,0,1,2-.87,5.71,5.71,0,0,1,2.22-.06,2.83,2.83,0,0,1,1.9,1.09,4.57,4.57,0,0,0-2-.31,9.14,9.14,0,0,0-1.94.26,11.2,11.2,0,0,0-1.87.57A4.45,4.45,0,0,0,45.26,59Z" transform="translate(-11.15 -21.89)"/><path class="cls-1" d="M22.6,87.24c3-.95,4.45,2.63,5.16,4.93.08.26,1.06.29,1,0-1-3.2-3-6.46-6.81-5.27-.49.15.43.42.68.35Z" transform="translate(-11.15 -21.89)"/><path class="cls-1" d="M106.66,86.87c-3.79-1.18-5.83,2.15-6.8,5.31-.09.29.88.24,1,0,.71-2.33,2.11-5.85,5.16-4.9.25.08,1.16-.22.67-.38Z" transform="translate(-11.15 -21.89)"/><path class="cls-1" d="M71.08,93.27c-2,3.93-11,3.29-12.91,0Z" transform="translate(-11.15 -21.89)"/><path class="cls-1" d="M53.91,77.48a2.59,2.59,0,0,1-2.3,2.8,2.85,2.85,0,0,1,0-5.6A2.59,2.59,0,0,1,53.91,77.48Z" transform="translate(-11.15 -21.89)"/><path class="cls-1" d="M81.36,59a4.41,4.41,0,0,0-1.66-1.08,11.31,11.31,0,0,0-1.88-.57,9.05,9.05,0,0,0-1.93-.26,4.55,4.55,0,0,0-2,.31,2.81,2.81,0,0,1,1.9-1.09,5.71,5.71,0,0,1,2.22.06,5.81,5.81,0,0,1,2,.87A2.76,2.76,0,0,1,81.36,59Z" transform="translate(-11.15 -21.89)"/><path class="cls-1" d="M77.32,77.48a2.35,2.35,0,1,1-2.3-2.8A2.59,2.59,0,0,1,77.32,77.48Z" transform="translate(-11.15 -21.89)"/><path class="cls-1" d="M64.23,70.37c-.12,3.42,1,6.46,1.93,9.71a17,17,0,0,1,.8,5.83c0,.45,0,1.88-.41,2.1-.61.36-2.58-.68-3-.87-.23-.1-1.19,0-.73.21A13.42,13.42,0,0,0,67,88.47c.14,0,.48,0,.52-.15,1.61-6.2-2.52-11.69-2.31-17.85,0-.29-1-.37-1-.1Z" transform="translate(-11.15 -21.89)"/><path class="cls-1" d="M115.86,91.64c-2.53-4.66-4.77-9.1-4.57-14.51.41-11.47,4.24-21-2.3-31.65-4-6.61-10.41-11.68-17.43-15-1.88-.89-4.89-1.35-6.5-2.54-5-3.72-10.35-4.8-16.38-5.64a42.83,42.83,0,0,0-11.86.06c-8,1.09-16.68,3.08-23.27,7.87A38.37,38.37,0,0,0,24,40.09c-8.31,13.29-4.25,27.27-6.08,41.76-.54,4.31-4.37,6-6,9.71a10.06,10.06,0,0,0,.78,9.12c1.84,2.77,5.84,5.16,6.07,8.73.17,2.67-2.25,4.65-2.21,7.32.05,3.31,2.49,5.51,5.6,6,1.78.25,2.17-.19,3.3.82s1.35,2.39,2.42,3.31C30.29,128.89,34,129.7,37,130a19.36,19.36,0,0,0-.85,2.11,41.92,41.92,0,0,0-1.35,5.52c-.18,1-.35,1.94-.53,2.91-.1.51-.61,1.77-.4,2.19.65,1.32,5.07,1.53,6.3,1.74a117.52,117.52,0,0,0,14.16,1.15q9.21.43,18.43.18A104.62,104.62,0,0,0,85.35,145c1.36-.2,2.71-.43,4.06-.69,1.13-.23,2.92-.36,3.91-1s.55-1.13.3-2.43c-.42-2.19-.76-4.4-1.31-6.57-.2-.75-.43-1.5-.68-2.24,4.14.81,11.35-1,12.48-5.5.49-1.95-.91-3.3.53-5,1.29-1.55,3.82-1.81,5-3.44,1.36-1.85.43-3,.33-5-.2-3.82,3-5.29,4.89-8A12.73,12.73,0,0,0,115.86,91.64ZM45.48,134.9l.1-.07c.68-3.81,2.33-9.62,3-10.74.52,0,1,0,1.54-.07,3.68-.28,6.58-1.58,7.85-5.18a39.65,39.65,0,0,0,5,.5l.38,0,1.11,0h.86c1.26,0,2.52-.09,3.77-.22h.08c1.19.24,1.29,1.39,2.09,2.31,1.75,2,4.14,2.43,6.65,2.59.66,1,2.33,6.91,3,10.76l0,.25C72.2,135.38,53.18,135.05,45.48,134.9ZM81.26,145l-1,.07ZM27.15,82.55c1.61,2.17,3.32,4,3.32,1.07,0-5.74,0-8,.17-11.76.12-2.38.53-5.77.69-8.15A52.46,52.46,0,0,1,32.54,56,45.48,45.48,0,0,1,35,49.16a14.13,14.13,0,0,1,1.15-2c.31-.31.6-.63.92-.93l.77-.64c-1.21,4.52-1.59,6.8.65,8.35l51.46.16c2.24-1.56,1.3-4.41-.74-8.51l.78.64c.34.32.66.67,1,1a13.37,13.37,0,0,1,1.1,1.93,63.48,63.48,0,0,1,2.39,8.15,35.49,35.49,0,0,1,1.25,6.4c.17,2.38.57,5.77.69,8.15.19,3.78.17,6,.17,11.76,0,2.87,3.38,1.66,5-.46a5.9,5.9,0,0,1,4.77-.23c2.16,1.26,2.45,4.69,1.27,7.25-1.56,3.4-5.54,5.91-9.31,5.13-.23,0-.67-.06-.82.18-4.11,6.4-11.5,12.37-19.1,14-2.24.47-4.64.3-6.85.82a2.63,2.63,0,0,0-2.16,2.09,13,13,0,0,0,.06,4.48c.12.94.42,1.5-.36,1.92a40,40,0,0,1-10-.21h0c-1.25-.63-.41-2.73-.38-4,0-1.7,0-3.67-1.86-4.26s-4.07-.37-5.94-.65c-8.13-1.23-16.07-7.48-20.43-14.25-.1-.15-.49-.1-.62-.07C26.31,96,22.62,94,20.8,91.14a8.48,8.48,0,0,1-1.1-5.61c.73-1.78,2.79-2.69,4.8-3l.25,0A9.08,9.08,0,0,1,27.15,82.55Zm10,60.87a5.69,5.69,0,0,1-1.91-.53c-.63-.53-.28-1-.11-1.82.69-3.57,1.15-7.27,2.61-10.63a11.18,11.18,0,0,1,3.37-4.62,9.19,9.19,0,0,1,5-1.6,46.11,46.11,0,0,0-2.52,10.64l-1.32,0-1.18,9.35C39.75,144,38.44,143.72,37.15,143.42Zm7.68,1.25c4.9.43,9.49.69,13.69.82C53.94,145.41,49.35,145.18,44.83,144.67Zm47.53-5.28c.14.74.27,1.48.42,2.21.2,1,.28,1.05-.56,1.51a17,17,0,0,1-6,1.37L85,134.83c-.47.07-1.18.13-2,.18a46.57,46.57,0,0,0-2.55-10.83,15.11,15.11,0,0,1,4.87.78c3.67,1.86,5.2,5.81,6.12,9.58C91.78,136.14,92.07,137.77,92.36,139.39Z" transform="translate(-11.15 -21.89)"/></svg>