<svg id="Layer_1" data-name="Layer 1" xmlns="http://www.w3.org/2000/svg" viewBox="0 0 113.94 126.45"><defs><style>.cls-1{fill:#fff;}</style></defs><title>female3</title><path class="cls-1" d="M42.71,55.88A2.76,2.76,0,0,1,44,54.12a5.81,5.81,0,0,1,2-.87,5.71,5.71,0,0,1,2.22-.06,2.81,2.81,0,0,1,1.9,1.09,4.55,4.55,0,0,0-2-.31,9.05,9.05,0,0,0-1.93.26,11.31,11.31,0,0,0-1.88.57A4.41,4.41,0,0,0,42.71,55.88Z" transform="translate(-4.42 -19.89)"/><path class="cls-1" d="M20,87.43c3.05-1,4.52,2.66,5.22,5,.1.3,1.07.18,1,0-1-3.19-2.94-6.43-6.74-5.25-.61.19.22.42.52.33Z" transform="translate(-4.42 -19.89)"/><path class="cls-1" d="M104.1,87.08c-3.78-1.18-5.83,2.14-6.8,5.3-.09.29.89.25,1,0,.71-2.33,2.11-5.86,5.17-4.91.24.08,1.16-.22.66-.37Z" transform="translate(-4.42 -19.89)"/><path class="cls-1" d="M55.17,88.4c2.57,3.87,11.41,4.39,13.83.18.12-.2-.79-.58-1-.3-2.11,3.66-9.75,3.58-12,.19-.15-.22-1.09-.39-.88-.07Z" transform="translate(-4.42 -19.89)"/><path class="cls-1" d="M51.36,75.17A2.58,2.58,0,0,1,49.05,78a2.85,2.85,0,0,1,0-5.59A2.59,2.59,0,0,1,51.36,75.17Z" transform="translate(-4.42 -19.89)"/><path class="cls-1" d="M74.76,75.17a2.34,2.34,0,1,1-2.3-2.8A2.58,2.58,0,0,1,74.76,75.17Z" transform="translate(-4.42 -19.89)"/><path class="cls-1" d="M60.78,69.46c0,2.81-.37,6.3.86,8.92a3.14,3.14,0,0,0,1.58,1.53c1.13.64,3,1,2.44,2.81s-2.77,2.2-4.25,1.7c-.41-.14-1,.09-.36.31a5.43,5.43,0,0,0,4.24-.19,2.54,2.54,0,0,0,.25-4.39c-.63-.41-1.3-.28-1.91-.57-1.09-.53-1.32-1.75-1.54-2.86a35.81,35.81,0,0,1-.34-7c0-.32-1-.48-1-.24Z" transform="translate(-4.42 -19.89)"/><path class="cls-1" d="M109.18,64.45C107,57,106.23,48.93,104,42.18a22.09,22.09,0,0,0-5.19-8.08C90.21,25.26,77,19.29,63.92,19.94c-5.56.27-10.94,1.68-16.32,2.87C41.08,24.25,34.3,26.33,28.81,30,16.42,38.18,17.24,52.25,13.6,64.45c-2.22,8.1-17,22.27-3.69,27-4.44,4.72-3,11.47,4.43,11.47.74,6.75,8.12,13.5,14,7.43-.55.56,1.81,3.63,2.19,4.09a13.59,13.59,0,0,0,4,3.28,9.31,9.31,0,0,0,4.68,1.21c1.89-.1,2.81-1.13,4.34-1.84,1.17,1.57,1.61,3.28,4,3.81,2.8.63,6.28-.57,7.5-3a2.4,2.4,0,0,1,.11.23,7.73,7.73,0,0,1-5.48,5.75l-.12,0-.56.07c-.07,0-.4.09-.36.22v0c-.37,0-.75.08-1.13.11s-.76,0-1.15,0c-.71,0-1.41,0-2.11.06a.29.29,0,0,1,.11.11,3.32,3.32,0,0,1,.32,1.31c0,.23-1,.11-1-.22a3.2,3.2,0,0,0-.29-1.14,10.29,10.29,0,0,0-3.47.81c-6.15,2.83-6.62,12.28-7.88,17.79,0,.22.72.5,1.77.78a5.86,5.86,0,0,0,0-2.17c-.06-.28.88-.06.94.22a6.14,6.14,0,0,1,.06,2.18c1.91.44,4.19.81,4.57.85,1.3.13,2.59.24,3.89.35,1,.09,2.09.16,3.13.24a6.67,6.67,0,0,1,.14-1.17c.07-.32,1-.29,1-.08a7.31,7.31,0,0,0-.15,1.32q3.72.24,7.44.38h0l0,.05c0,.14.25.17.37.17q7.17.24,14.35.07c.15,0,.43,0,.48-.21h0l2.41-.09a6.55,6.55,0,0,0-.41-1.41c-.14-.29.84-.41,1-.16a7.13,7.13,0,0,1,.46,1.53l1.87-.07c1.78-.08,3.56-.19,5.33-.32,1-.06,10.8-1.46,10.58-2.46-.55-2.37-.94-5.48-1.71-8.47.06.48.12,1,.18,1.44,0,.29-1,.43-1,.16a16.31,16.31,0,0,0-.63-3.47c-.06-.17.49-.34.8-.28a16.48,16.48,0,0,0-2-4.17c0,.37.1.74.15,1.09s-.9.07-.94-.21c-.12-.72-.18-1.51-.37-2.24a8.28,8.28,0,0,0-2.34-1.64,7.12,7.12,0,0,0-1.09-.4c.28,1.09.52,2.2.82,3.28.08.31-.9.27-1,0-.33-1.17-.57-2.36-.88-3.53a36.14,36.14,0,0,0-5-.31c-.47,0-.93-.06-1.39-.11l0-.07c0-.1-.21-.15-.26-.16-.33,0-.65-.09-1-.15h-.06a6.65,6.65,0,0,1-3.73-2.3,3.78,3.78,0,0,0,.47.06,7.82,7.82,0,0,0,7.36-4c.77-1.38.34-1.41,1.61-.65s1.74,1.54,3.2,1.83c5.27,1.06,10.8-4.14,11.85-8.47,5.91,6.07,13.3-.68,14-7.43,7.39,0,8.87-6.75,4.44-11.47C126.17,86.72,111.4,72.55,109.18,64.45Zm-73.29,68.2a14.52,14.52,0,0,1-.32-2.37c0-.27,1-.25,1,0a14.4,14.4,0,0,0,.32,2.36C36.93,132.91,36,133,35.89,132.65Zm2.73,8.18c0,.31-1,.28-1,0a10.42,10.42,0,0,0,.16-3.15c0-.26,1-.35,1,0A10.44,10.44,0,0,1,38.62,140.83Zm2-8.43c0-1.58-.14-3.15-.16-4.72,0-.33,1-.06,1,.21,0,1.57.15,3.15.16,4.72C41.59,132.94,40.64,132.67,40.64,132.4Zm1.55,11.65a19.21,19.21,0,0,1-.47-2.83c0-.27,1-.39,1-.1a19.59,19.59,0,0,0,.48,2.84C43.26,144.19,42.28,144.35,42.19,144.05Zm1-7.84c-.15-1.26-.17-2.53-.32-3.78,0-.31.93-.11,1,.16.14,1.25.17,2.52.31,3.78C44.15,136.68,43.19,136.48,43.16,136.21Zm4.28-4.62c0,.27-1,.24-1-.05v-2c0-.28,1-.24,1,0Zm42.84,9.87a6.66,6.66,0,0,1,.16,1.89c0,.29-1,.32-1,.05a6.66,6.66,0,0,0-.16-1.89C89.22,141.28,90.19,141.15,90.28,141.46Zm-4.42-2.07c0,1.16.14,2.31.16,3.47,0,.23-1,.09-1-.23,0-1.16-.14-2.31-.16-3.46C84.88,138.93,85.86,139.07,85.86,139.39Zm-1.15-6.53c0-.3,1-.34,1-.07v2.52c0,.29-1,.34-1,.07Zm-2,3.24a19.61,19.61,0,0,1,.64,3.21c0,.24-.95.25-1-.06a19,19,0,0,0-.61-3.09C81.64,135.85,82.62,135.85,82.71,136.1ZM50.76,110.6a14.74,14.74,0,0,1,1.67.17ZM48,141a19.94,19.94,0,0,0-.16-3.09c0-.3.91-.08.95.2a20.25,20.25,0,0,1,.16,3.21C49,141.54,48,141.34,48,141Zm4.09,3.31a5.89,5.89,0,0,0-.63-1.73c-.14-.22.81-.26,1,0a5.89,5.89,0,0,1,.63,1.73C53.17,144.63,52.19,144.58,52.13,144.32Zm-.44-9.3c0,.25-.95.32-1,0-.17-1.1-.26-2.21-.47-3.31,0-.13.29-.21.57-.2s.41.06.43.19c.17.9.27,1.8.39,2.7C51.64,134.61,51.66,134.82,51.69,135Zm9.53,10.91c-.92,0-4.84.41-5.34-.07s-.8-2.84-1-3.57L51,128.57c-.28-1-1.34-3.06-1.17-4.12,0,0,0-.1,0-.18h0a8.65,8.65,0,0,0,1.24,1c.23.15.47.29.71.43a18.21,18.21,0,0,0,10.73,2.71l.71,0,.3,0a18.8,18.8,0,0,0,6.21-1.64c.13,0,.25-.12.37-.18s.47-.22.69-.34a19,19,0,0,0,3-1.92c.29,0,.07,0,.06.66a11.84,11.84,0,0,1-.51,2.33l-1.68,7.63q-1.2,5.49-2.41,11C66.53,145.94,63.87,146,61.22,145.93Zm12.49-3.1a9.45,9.45,0,0,1-.48-2.74c0-.22,1-.06,1,.26a8.65,8.65,0,0,0,.47,2.62C74.75,143.24,73.8,143.11,73.71,142.83Zm5.49,2.33a24.33,24.33,0,0,1-.63-2.84c-.06-.25.93-.4,1-.1a22.68,22.68,0,0,0,.63,2.83C80.28,145.27,79.32,145.46,79.2,145.16Zm1.14-15.84a14.1,14.1,0,0,1,.65,2.73c0,.24-.95.28-1,0a13.67,13.67,0,0,0-.61-2.62C79.26,129.1,80.24,129.06,80.34,129.32Zm-1.24,6.06a11.86,11.86,0,0,1,.15,2.52c0,.27-1,.22-1-.08a11.17,11.17,0,0,0-.16-2.52C78.05,135.09,79,135.07,79.1,135.38Zm-3.35-9c0-.24,1-.09,1,.22v3.15c0,.24-1,.1-1-.22Zm-.44,5.88c0,1,.14,1.89.16,2.84,0,.24-1,.11-1-.21,0-.94-.15-1.88-.16-2.83C74.33,131.85,75.3,132,75.31,132.29Zm-4.08-8.74c.89.42,1.59.22.89,1.08,0,0,0,0-.05.05a17.28,17.28,0,0,1-14.93,2.72,17.8,17.8,0,0,1-5.82-2.71l-.15-.12c-.54-.47-.23-.45.71-.84,3.15-1.3,4.27-4.34,4.49-7.53.14-2.1.4-4.8-2.06-5.45a40.58,40.58,0,0,0-4.93-.52,22.24,22.24,0,0,1-7.7-2.45A35,35,0,0,1,28.2,95.93c-.12-.19-.54-.2-.73-.16-4,.82-8.25-2-9.64-5.71A6.74,6.74,0,0,1,18,84.62c1.1-1.87,2.94-1.58,4.79-1.76a.84.84,0,0,0,.23,0,9.45,9.45,0,0,0,2.75,2.66c.14-2-.33-4.28-.34-6.37a37.66,37.66,0,0,1,3.31-15A96.29,96.29,0,0,1,42.2,41.65,24.46,24.46,0,0,0,47.93,49c8.77,8.26,20.86,12.58,32.29,15.56.11,0,.88.1.74-.18a85.14,85.14,0,0,1-5.22-12.59c.57.76,1.18,1.48,1.75,2.17,4.5,5.35,10,9.81,15.61,14,.18.13.76.24.91,0,1.58-2.32,1.41-5.35.67-8a20.59,20.59,0,0,1,2.19,3.69c2.87,5.92,3.54,12.7,3.51,19.2,0,.25.59.25.74.22,5.46-1.1,5.82,5,3.86,8.34-1.8,3-5.54,5.13-9.08,4.4-.15,0-.52,0-.63.1a34.23,34.23,0,0,1-11.38,10.65,28.85,28.85,0,0,1-13,4c-1.74.18-3.32.16-3.78,2.23-.67,3,.07,7.45,2.37,9.59A7.07,7.07,0,0,0,71.23,123.55Zm26.16-27.4h0Z" transform="translate(-4.42 -19.89)"/><path class="cls-1" d="M98.05,42.5c-2.21,2.17-4.38,4.75-6.85,6.93a7.1,7.1,0,0,0,1.72,1.82c1.61-1.12,5.57-5.54,6.83-7.1A6.76,6.76,0,0,0,98.05,42.5Z" transform="translate(-4.42 -19.89)"/></svg>