<svg id="Layer_1" data-name="Layer 1" xmlns="http://www.w3.org/2000/svg" viewBox="0 0 108.58 130.64"><defs><style>.cls-1{fill:#fff;}</style></defs><title>female1</title><path class="cls-1" d="M17.56,84.22c3-1,4.4,2.49,5.11,4.82.09.28,1,.42,1,.15-1-3.16-3.05-6.58-6.85-5.39-.34.11.52.5.78.42Z" transform="translate(-6.69 -12.48)"/><path class="cls-1" d="M101.57,83.82c-3.78-1.18-5.83,2.16-6.8,5.31-.09.29.89.24,1,0,.72-2.34,2.11-5.85,5.17-4.9.25.08,1.16-.22.66-.38Z" transform="translate(-6.69 -12.48)"/><path class="cls-1" d="M67.64,51.47a3.58,3.58,0,0,1,1.85-1.07,5.48,5.48,0,0,1,2.17-.12,5.15,5.15,0,0,1,2,.77,3.25,3.25,0,0,1,1.36,1.66,6.61,6.61,0,0,0-1.72-1,8.49,8.49,0,0,0-1.83-.47,10.05,10.05,0,0,0-1.9-.11A9.45,9.45,0,0,0,67.64,51.47Z" transform="translate(-6.69 -12.48)"/><path class="cls-1" d="M48.83,70.59a2.59,2.59,0,0,1-2.31,2.8,2.85,2.85,0,0,1,0-5.59A2.59,2.59,0,0,1,48.83,70.59Z" transform="translate(-6.69 -12.48)"/><path class="cls-1" d="M72.23,70.59a2.34,2.34,0,1,1-2.3-2.79A2.59,2.59,0,0,1,72.23,70.59Z" transform="translate(-6.69 -12.48)"/><path class="cls-1" d="M39.69,76.9a.42.42,0,1,1-.42-.42A.42.42,0,0,1,39.69,76.9Z" transform="translate(-6.69 -12.48)"/><path class="cls-1" d="M40.9,78.48a.43.43,0,0,1-.85,0,.43.43,0,0,1,.85,0Z" transform="translate(-6.69 -12.48)"/><path class="cls-1" d="M42.71,77.33a.43.43,0,0,1-.85,0,.43.43,0,1,1,.85,0Z" transform="translate(-6.69 -12.48)"/><circle class="cls-1" cx="70.24" cy="64.42" r="0.42"/><path class="cls-1" d="M75.3,78.48a.43.43,0,0,0,.85,0,.43.43,0,0,0-.85,0Z" transform="translate(-6.69 -12.48)"/><path class="cls-1" d="M73.49,77.33a.43.43,0,0,0,.85,0,.43.43,0,1,0-.85,0Z" transform="translate(-6.69 -12.48)"/><path class="cls-1" d="M57.14,66.89a25.17,25.17,0,0,0,3.12,9.73,21,21,0,0,1,2,3.72c.89,2.66-3.16,3.41-4.71,1.63-.19-.22-1.12,0-1,.15,1.38,1.57,6.19,2,6.86-.61.35-1.39-1.3-3.36-1.93-4.47a26.67,26.67,0,0,1-3.41-10.19c0-.3-1-.23-1,0Z" transform="translate(-6.69 -12.48)"/><path class="cls-1" d="M65.61,87c-1.8,4-10.9,3.69-12.91.47Z" transform="translate(-6.69 -12.48)"/><path class="cls-1" d="M47.67,140.73Z" transform="translate(-6.69 -12.48)"/><path class="cls-1" d="M115.23,79.4c.75-5.79-7.75-13.71-9.94-18.36-4.87-16.28-.43-34.78-22.71-44.42-14.27-6.17-31.8-5.24-45.8,1.45-9.26,4.42-15.11,12.42-18.64,21.84C15,48.35,15.51,57.47,13.36,66.12a5.62,5.62,0,0,0-.16.61c-.3,1.14-.65,2.27-1.06,3.38-1,2.59-2.18,4.71-3,7C4.8,84.73,6.22,90.25,13.29,95.24,11.64,98.68,8.9,101.43,9,105.87c.15,5.23,5.49,7.31,9.48,9.31-.48-1.58-1-5.76-1.35-7.43,4,4,6.53,8.48,12.44,9.27,2.47.33,2.47.33,9.24-5.27a56.63,56.63,0,0,0,13.52,4.15,7.33,7.33,0,0,1-1.58,2.6c-1.62,0-11.84.26-13.35,3.28a8.29,8.29,0,0,0-2.17,1.27c-3.13,2.59-4.23,6.94-5,10.75-.21,1-.39,2-.57,3-.1.56-.81,2.44-.59,3s1,.67,1.5.82a44.4,44.4,0,0,0,9.23,1.54c1.25.11,2.49.2,3.74.29.07.14.49.16.76.06,1.3.09,2.6.17,3.9.23a1.07,1.07,0,0,0,.73,0q4.85.24,9.69.3c9,.1,18.2.13,27-1.79.84-.19,2.71-.33,3.32-1s-.22-3-.4-4c-.83-4.54-1.68-9.5-5.09-12.89l-.06,0s0,0,0,0l0,0h0a12.16,12.16,0,0,0-2.36-.9c-.2-4-13.75-4-13.75-4a1.15,1.15,0,0,1,.11.17,6.92,6.92,0,0,1-1.4-2,37,37,0,0,0,7.21-1.2,17.21,17.21,0,0,0,7-4.58c-.36,1.8-.43,4.15.86,4.4,1.61.32,7.31-.94,8.94-1,2.18-.06,6.36-4.7,8.24-5.58.77,2-1,6.57-3,6.57a13.91,13.91,0,0,0,6-1,71,71,0,0,0,7.76-4.47c3-2.21,6.23-5.68,6.23-9.84,0-6.76-1.82-6-3.48-8.36a4.6,4.6,0,0,1-.68-4.48C112,84.56,114.86,82.26,115.23,79.4Zm-55.7,44.9h.17l.78.5a10.92,10.92,0,0,1-1.15.07c-.49,0-1,0-1.48-.07.35-.22.61-.4.79-.52Zm12.77,7.77c-1.23.11-2.46.11-3.69.11,0-1-.09-2-.14-3h3.72C72.23,130.18,72.26,131.12,72.3,132.07Zm.33,8.36c-.84-.08-1.68-.13-2.53-.13a4.64,4.64,0,0,0-1.08.07c-.06-1.1-.11-2.2-.17-3.3h1.44a12.54,12.54,0,0,0,2.21,0Zm-3.59.36c.23,0,.5,0,.59-.08s.3,0,.4,0c.3,0,.6,0,.91,0,.57,0,1.14.05,1.71.11l.06,1.45c0,.08.06.13.14.18-1.25.06-2.5.1-3.74.13,0,0,0,0,0-.05Zm3.26-4.31a7.38,7.38,0,0,1-2.57.12h-.9c-.07-1.34-.13-2.67-.2-4,1.23,0,2.46,0,3.69-.12.05,1.34.1,2.67.16,4Zm-.13-7.6a1.06,1.06,0,0,0-.42-.16H68.44l0-.57.63.13a11.76,11.76,0,0,0,3.11.12C72.16,128.56,72.17,128.72,72.17,128.88Zm-23.34-.55,0,.45H45.09l0-.52A12.12,12.12,0,0,0,48.83,128.33Zm-.59,12.06a4.48,4.48,0,0,0-1.12-.09c-.83,0-1.66,0-2.49.12,0-1.14.09-2.28.14-3.43a15.73,15.73,0,0,0,3.63,0C48.35,138.16,48.29,139.27,48.24,140.39Zm.4-8.21c-1.23,0-2.45,0-3.68-.11l.12-2.91.14,0h3.57Zm-3.69.29c1.22.11,2.44.12,3.67.12l-.2,4h-1a7.62,7.62,0,0,1-2.48-.07l-.15,0Zm-.4,9.84.06-1.48h.09q.9-.09,1.8-.12.39,0,.78,0a2.62,2.62,0,0,0,.28,0,.17.17,0,0,1,.11,0,.23.23,0,0,1-.05,0,.82.82,0,0,0,.6.11l-.09,1.76c-1.2-.06-2.39-.13-3.59-.22Zm-8.84-1a42,42,0,0,1-4.16-.86c-.35-.1-1.26-.21-1.44-.57s.4-1.94.47-2.35c.7-3.77,1.25-7.77,3.14-11.17a9.41,9.41,0,0,1,3.54-3.69c.09,1.34,2.76,4.33,6.87,5.41l-.57,14.2C40.91,142,38.29,141.73,35.71,141.29Zm29.11,1.38c-5.13.08-10.43.13-15.69-.08q.36-7.22.71-14.43a25.64,25.64,0,0,0,7.44-3,20.21,20.21,0,0,0,3.73,0,26.68,26.68,0,0,0,6.4,2.78l.72,14.7Zm23.3-3.7c.15,1.46-.75,1.43-2.09,1.76a64.86,64.86,0,0,1-12.33,1.68l-.57-14.13c4.42-.74,7.46-3.79,7.88-5.36a9.68,9.68,0,0,1,1.65.67c2.84,2.84,3.84,6.88,4.59,10.7C87.55,135.82,88,137.42,88.12,139ZM67.84,119.66c.29,1.12.15,2.76-2.62,3.7a39.07,39.07,0,0,1-6.29.53,51.14,51.14,0,0,1-5.91-.56c-2.42-.85-2.78-2.24-2.61-3.31h0a6.84,6.84,0,0,0,1.5-1.23,7.52,7.52,0,0,0,1.52-2.68c.64-2,.92-4.57-.18-6.41a2.57,2.57,0,0,0-2.17-1.64c-2.14-.48-4.3-.91-6.44-1.41-7.61-1.8-14.82-7.42-19-13.94a.93.93,0,0,0-.75-.23,8.74,8.74,0,0,1-9.46-5.3c-1.49-3.58-.13-8.35,4.59-7.4a.65.65,0,0,0,.41,0c.35.07.72.16,1.12.28,3,.9,1.11-17.67,1.61-19A9.92,9.92,0,0,1,27,57.19c2.19-1.07,4.26-2.36,6.4-3.52A87.16,87.16,0,0,0,47.23,43.39c-2,2.91-8.12,9.82-9.8,11.06,11,3.45,22.11-4.11,29.37-11.22-1.68,3.54-4.84,7.18-5.91,9.51,4.79-.62,12.82-6.86,15.31-13a27.3,27.3,0,0,1,2.41,10.81c1.11-4.58,2.09-8.49,1-12.53a77.47,77.47,0,0,1,6.89,8.75C92.13,55,98.9,69.94,96.71,80.15c.07-.29.63-.44,1.35-.5a1.14,1.14,0,0,0,.59.16c5.65-1.13,5.72,5.24,3.63,8.49-1.86,2.9-5.52,4.93-9,4.21-.16,0-.42-.09-.53.07a35.09,35.09,0,0,1-13.51,11.86C75.36,106.5,71.15,107,67,108.07c-2.54.64-2.84,3.26-2.65,5.68A7.64,7.64,0,0,0,67.84,119.66Z" transform="translate(-6.69 -12.48)"/></svg>