<?xml version="1.0" encoding="utf-8"?>
<!-- Generator: Adobe Illustrator 23.0.6, SVG Export Plug-In . SVG Version: 6.00 Build 0)  -->
<svg version="1.1" id="Capa_1" xmlns="http://www.w3.org/2000/svg" xmlns:xlink="http://www.w3.org/1999/xlink" x="0px" y="0px"
	 viewBox="0 0 304.3 304.3" style="enable-background:new 0 0 304.3 304.3;" xml:space="preserve">
<style type="text/css">
	.st0{fill:#FFFFFF;}
</style>
<path class="st0" d="M254.8,131.7c-1.7-43.4-37.6-78.2-81.4-78.2c-29.7,0-56.7,16-71,41.5c-6.4-3.7-13.7-5.6-21.3-5.6
	c-22.2,0-40.5,16.9-42.8,38.4C15.2,138,0,161,0,186.6c0,16.8,6.5,32.8,18.2,44.8c11.7,12,27.4,18.9,44.2,19.4c0.4,0,32.3,0,94.8,0
	c80.7,0,88.1,0,88.8,0v0l0.1,0c0,0,0.1,0,0.1,0c15.6-0.5,30.2-7,41.1-18.2c10.9-11.3,16.9-26.1,16.9-41.8
	C304.3,161.4,283.1,136.7,254.8,131.7z M245.9,235.8C245.9,235.8,245.8,235.8,245.9,235.8c-1.3,0-37.7,0-88.7,0
	c-44.4,0-92.2,0-94.4,0C36,235,15,213.4,15,186.6c0-21,13.3-39.7,33.1-46.5c3.1-1.1,5.1-4,5-7.2c0-0.1,0-0.3,0-0.4l0-0.1
	c0-15.4,12.6-28,28-28c7.1,0,13.8,2.6,19,7.4c1.8,1.7,4.3,2.3,6.7,1.8c2.4-0.5,4.4-2.2,5.3-4.4c10.4-24.7,34.5-40.7,61.3-40.7
	c36.7,0,66.5,29.8,66.5,66.5c0,0.9,0,1.8-0.1,3c-0.2,4.1,3,7.6,7.1,7.8c23.8,1.4,42.4,21.1,42.4,45
	C289.3,215.2,270.3,235,245.9,235.8z"/>
</svg>
