<svg id="Layer_1" data-name="Layer 1" xmlns="http://www.w3.org/2000/svg" viewBox="0 0 93.04 132.05"><defs><style>.cls-1{fill:#fff;}</style></defs><title>male</title><path class="cls-1" d="M20.44,85.82c3-.95,4.46,2.73,5.15,5,.08.25,1.06.23,1-.08-1-3.24-3-6.41-6.82-5.22-.48.15.46.38.7.31Z" transform="translate(-14.46 -12.49)"/><path class="cls-1" d="M104.43,85.52c-3.81-1.19-5.76,2-6.75,5.19-.07.23.9.41,1,.11.69-2.25,2.19-6,5.22-5,.29.09,1.15-.1.54-.29Z" transform="translate(-14.46 -12.49)"/><path class="cls-1" d="M41.36,57.39a2.58,2.58,0,0,1,1.1-2.11,5,5,0,0,1,2.12-1,4.8,4.8,0,0,1,2.35,0,2.63,2.63,0,0,1,1.87,1.49,6.17,6.17,0,0,0-2,.08c-.6.1-1.2.22-1.79.35s-1.2.27-1.79.43A5.64,5.64,0,0,0,41.36,57.39Z" transform="translate(-14.46 -12.49)"/><path class="cls-1" d="M73.35,56.23a3.18,3.18,0,0,1,1.79-1.47,4.85,4.85,0,0,1,2.3-.22,4.6,4.6,0,0,1,2.16.91,2.87,2.87,0,0,1,1.17,2,11.23,11.23,0,0,0-1.9-.62c-.58-.13-1.15-.23-1.72-.32s-1.16-.16-1.77-.21A17.9,17.9,0,0,0,73.35,56.23Z" transform="translate(-14.46 -12.49)"/><path class="cls-1" d="M69.9,90.13c-2.75,5-13.15,4.74-16.13.1-.16-.25-1.1-.2-1,0,3.23,5,15,5.54,18,.09.15-.27-.81-.44-.95-.2Z" transform="translate(-14.46 -12.49)"/><path class="cls-1" d="M49.64,71.48a2.59,2.59,0,0,1-2.3,2.8,2.85,2.85,0,0,1,0-5.6A2.59,2.59,0,0,1,49.64,71.48Z" transform="translate(-14.46 -12.49)"/><path class="cls-1" d="M78.09,71.48a2.35,2.35,0,1,1-2.3-2.8A2.59,2.59,0,0,1,78.09,71.48Z" transform="translate(-14.46 -12.49)"/><path class="cls-1" d="M62.06,66.92c.76,3.3,1.49,6.53,2.52,9.75a12.27,12.27,0,0,1,.66,4.49,3.92,3.92,0,0,1-.66,2.28c-1.47,1.84-4.38.18-5.32-1.4-.15-.26-1.09-.26-1,0,1.33,2.26,6.18,4.16,7.6,1,.92-2,.13-4.77-.54-6.76-1-3-1.61-6.15-2.34-9.26-.06-.26-1-.35-1,0Z" transform="translate(-14.46 -12.49)"/><path class="cls-1" d="M107.41,84.75a4.39,4.39,0,0,0-2.83-3.58,5.86,5.86,0,0,0-1.9-.35c-.78,0-1.74.48-2.4.44a1.29,1.29,0,0,1-.76-.29,32.3,32.3,0,0,0,2.83-5.33,38.1,38.1,0,0,0,2.12-6.94v0A53,53,0,0,0,105,39.32a13.88,13.88,0,0,0-1.29-3.72,38.13,38.13,0,0,0-6.43-11.15,19.26,19.26,0,0,0-11.57-6.68,2.46,2.46,0,0,1-1.17-.35,3.13,3.13,0,0,1-.63-.85c-1.74-2.91-5.22-3.34-8.26-3.69C67.7,12,60,12.8,52.17,14.18,45.19,15.41,38.9,17,32.44,13a5.88,5.88,0,0,0,3.87,5c-4.71,1.25-9.24,2.58-13.23,3.67,2.27,0,5.87-.78,9.63-1.54a32.89,32.89,0,0,0-8.56,4.87c-2.92,2.48-5,5.8-7,9.06a27.32,27.32,0,0,0,2.72-1.81c-.68,1.16-3.53,5-4.38,8.89a42.78,42.78,0,0,0-.92,12.66A15.59,15.59,0,0,1,16.69,49c-1.44,2.15,0,7.64.67,9.86.55,1.72,2.59,11,3.32,12.64a39.17,39.17,0,0,0,2.87,7.56h0a9.4,9.4,0,0,0,1.47,2c-.13,0-.27,0-.44,0s-.47-.12-.69-.13c-1.64-.1-3.42-.48-4.95.33C14,84,17.9,91,21.18,93.09a10.3,10.3,0,0,0,5.51,1.7,6.17,6.17,0,0,1,1.19-.1c.42.19.86,1.27,1.17,1.69a28.14,28.14,0,0,0,3.89,4.27c4.27,3.81,9.92,7.32,15.64,8.22,1.34.22,2.7.36,4.05.5a7,7,0,0,1,2.25.21c1.36.89.85,4.49.83,5.84a7.08,7.08,0,0,1-1.5,4.57,12.56,12.56,0,0,1-.91-.87c-.14-.15-.46-.11-.63-.07l-2.33.57c-.06,0-.44.14-.32.28-1,.21-2.5.54-3.74.85h0c-3.63.93-7.59,2.31-9.08,4.16a10.51,10.51,0,0,0-1.47,2.77c-1.59,4.14-1.83,8.51-2.7,12.81l-.22,1c-.09.42,2.77,1.06,5,1.46,1.15.22,2.12.37,2.35.4q6.36.63,12.74.92,4.24.21,8.47.25h0l1.47,0c3.08,0,6.16,0,9.24-.11s6.27-.25,9.4-.48c.47,0,3.11-.39,5.64-.86s5-1.09,4.93-1.6c-1.06-4.61-1.21-9.35-2.92-13.81a10.23,10.23,0,0,0-1.47-2.77c-1.91-2.38-7.93-4-12.07-4.85l-.7-.15,0,0c.18-.15-.1-.23-.2-.25-1-.19-2.63-.85-3.65-.43a3,3,0,0,0-.77.62,11.72,11.72,0,0,1-1.36-8.47c.58-2.28,2.84-1.91,4.75-2.13,5.71-.69,10.33-3,15-6.3a34.39,34.39,0,0,0,7-7c.64-.79.66-1,1.73-1.14a20.2,20.2,0,0,0,3-.3C104.53,93.32,108.14,89.24,107.41,84.75ZM35.76,44.9a5,5,0,0,1-.5,1.51C35.44,45.88,35.61,45.38,35.76,44.9Zm16.86,74.57c.22,0,.21.07,0,0Zm18.5.56c-.07-.46.07-.62.41-.47l.77.12c.82.14,1.45-.05,1,.61-.61,1-2.46,1.73-3.48,2.3a16.5,16.5,0,0,1-7.7,2.25A14.71,14.71,0,0,1,51.24,120a.38.38,0,0,0-.13-.1c.33-.16.79-.12,1.13-.27a1.81,1.81,0,0,1,.29-.09,1.19,1.19,0,0,1,.2.22c.66,1,2.47,2,3.48,2.48a12.37,12.37,0,0,0,11.38.29,20.37,20.37,0,0,0,2.74-1.92c.24,0,.45,0,.32-.16l0,0A5.39,5.39,0,0,1,71.12,120Zm35-32c-1.3,4-5.87,6.93-10.05,6.06-.13,0-.33,0-.41.1a32.43,32.43,0,0,1-22.94,14.56c-1.69.2-3.9-.1-4.68,1.8-.54,1.33-.26,3.31-.15,4.7a8.53,8.53,0,0,0,1.85,5l-.2.19a14.07,14.07,0,0,1-2.34,1.57,10,10,0,0,1-6.05,1.17,13.47,13.47,0,0,1-6.23-2.68,7,7,0,0,0,1.75-4.51c0-1.5.39-4.29-.37-5.69s-2.41-1.31-3.83-1.46a28,28,0,0,1-12.59-4A33.88,33.88,0,0,1,28.55,94.37a.93.93,0,0,0-.75-.24A8.77,8.77,0,0,1,18,87.68c-1-4.19,1.58-7.14,5.89-6.21A10.7,10.7,0,0,0,26,82l1.31,1.57c0-.59,1.82-13.43,3.25-24.26h0c.36-1.5,2.48-6.65,4.1-11.08-.42,1.64-.72,3.65-.72,3.65a42.42,42.42,0,0,0,11.85-.82c4.82-1.13,9.89-2.19,14.18-4.78,1.87-1.12,4.06-2.82,6.13-3.53-1.25,1.84-3.16,3.3-4.6,4.95,4.59,1,18.72,1.72,22.23-7.62,1.16,5.18,2.94,12.78,6.23,13.92.65.23.87-.4,1.16-1.44h0c.16-.55.34-1.2.61-1.92.76,2.74,1.55,5,2.36,8v0c.12,1.33,2.47,25,2.72,24.91a5.73,5.73,0,0,0,2.36-2,2.1,2.1,0,0,0,.86.31c1.09.13,2-.71,3.09-.53C106.54,81.82,107,85.3,106.12,88.07Z" transform="translate(-14.46 -12.49)"/></svg>